<svg version="1.1" id="Layer_1" xmlns="http://www.w3.org/2000/svg" xmlns:xlink="http://www.w3.org/1999/xlink" x="0px" y="0px"
	 width="100%" viewBox="0 0 1008 1042" enable-background="new 0 0 1008 1042" xml:space="preserve">
<path fill="#141414" opacity="1.000000" stroke="none" 
	d="
M560.000000,1043.000000 
	C373.333344,1043.000000 187.166672,1043.000000 1.000000,1043.000000 
	C1.000000,695.666687 1.000000,348.333344 1.000000,1.000000 
	C337.000000,1.000000 673.000000,1.000000 1009.000000,1.000000 
	C1009.000000,348.333344 1009.000000,695.666687 1009.000000,1043.000000 
	C859.500000,1043.000000 710.000000,1043.000000 560.000000,1043.000000 
M188.052002,637.557983 
	C139.448395,673.187439 90.844788,708.816833 42.241184,744.446289 
	C42.394474,744.744751 42.547768,745.043213 42.701057,745.341736 
	C108.529747,724.489136 174.358429,703.636597 240.338623,682.736084 
	C241.289459,684.079407 242.033493,685.154175 242.801147,686.211731 
	C258.931610,708.434265 274.163330,731.380554 291.360931,752.744263 
	C350.662781,826.411560 422.148529,886.308228 502.030060,936.508057 
	C505.077942,938.423401 506.871918,937.205200 509.098999,935.818542 
	C562.451111,902.599243 611.931580,864.370667 656.922791,820.481995 
	C716.370117,762.491211 766.148010,697.218628 803.978699,623.083862 
	C830.779419,570.564087 850.827698,515.520813 865.003174,458.348389 
	C877.857544,406.504303 885.562988,353.871613 888.355469,300.502563 
	C891.158997,246.921707 888.875610,193.605804 881.501343,140.460083 
	C880.767029,135.167923 878.492371,133.394913 873.968933,131.827103 
	C817.924133,112.402283 760.801392,97.094696 702.460876,86.347839 
	C651.270020,76.918022 599.662415,71.113029 547.659424,69.136803 
	C474.015289,66.338173 400.819031,70.954872 328.067291,82.889183 
	C261.589386,93.794327 196.689636,110.740990 133.173996,133.070023 
	C131.482605,133.664642 129.438553,136.063858 129.276306,137.783539 
	C126.367538,168.615936 122.690987,199.425262 121.251549,230.336044 
	C118.709633,284.921844 123.089806,339.192566 131.885056,393.125641 
	C142.620132,458.953918 160.923615,522.547668 187.693237,583.657837 
	C193.618362,597.183777 199.996796,610.511108 206.357849,624.346130 
	C200.443451,628.604431 194.531342,632.861145 188.052002,637.557983 
z"/>
<path fill="#FEFEFE" opacity="1.000000" stroke="none" 
	d="
M188.335617,637.337891 
	C194.531342,632.861145 200.443451,628.604431 206.357849,624.346130 
	C199.996796,610.511108 193.618362,597.183777 187.693237,583.657837 
	C160.923615,522.547668 142.620132,458.953918 131.885056,393.125641 
	C123.089806,339.192566 118.709633,284.921844 121.251549,230.336044 
	C122.690987,199.425262 126.367538,168.615936 129.276306,137.783539 
	C129.438553,136.063858 131.482605,133.664642 133.173996,133.070023 
	C196.689636,110.740990 261.589386,93.794327 328.067291,82.889183 
	C400.819031,70.954872 474.015289,66.338173 547.659424,69.136803 
	C599.662415,71.113029 651.270020,76.918022 702.460876,86.347839 
	C760.801392,97.094696 817.924133,112.402283 873.968933,131.827103 
	C878.492371,133.394913 880.767029,135.167923 881.501343,140.460083 
	C888.875610,193.605804 891.158997,246.921707 888.355469,300.502563 
	C885.562988,353.871613 877.857544,406.504303 865.003174,458.348389 
	C850.827698,515.520813 830.779419,570.564087 803.978699,623.083862 
	C766.148010,697.218628 716.370117,762.491211 656.922791,820.481995 
	C611.931580,864.370667 562.451111,902.599243 509.098999,935.818542 
	C506.871918,937.205200 505.077942,938.423401 502.030060,936.508057 
	C422.148529,886.308228 350.662781,826.411560 291.360931,752.744263 
	C274.163330,731.380554 258.931610,708.434265 242.801147,686.211731 
	C242.033493,685.154175 241.289459,684.079407 240.338623,682.736084 
	C174.358429,703.636597 108.529747,724.489136 42.701057,745.341736 
	C42.547768,745.043213 42.394474,744.744751 42.241184,744.446289 
	C90.844788,708.816833 139.448395,673.187439 188.335617,637.337891 
M517.015320,285.559967 
	C575.027893,266.575653 633.040527,247.591324 691.931274,228.319626 
	C653.864868,342.436554 616.193665,455.368652 578.218384,569.212524 
	C550.021912,541.024231 522.505615,513.515930 495.137299,486.155518 
	C440.424500,540.900330 385.798248,595.558533 330.923462,650.465454 
	C331.512238,651.335876 332.227234,652.418518 332.967377,653.483582 
	C379.161316,719.954956 435.870514,776.037354 501.031158,823.806030 
	C504.109741,826.062866 506.119629,826.041504 509.164917,823.809082 
	C566.917419,781.471802 618.183472,732.460022 661.450989,675.322510 
	C733.063416,580.753601 772.485352,473.416168 786.988159,356.354675 
	C792.635132,310.774353 794.071960,265.014526 791.803040,219.134827 
	C791.189758,206.734283 791.311218,206.778198 779.566956,203.511093 
	C699.644836,181.277725 618.247925,168.590042 535.317810,166.116211 
	C458.745453,163.832016 382.819550,170.123245 307.754669,185.329681 
	C279.259613,191.102127 251.159668,198.821274 222.863190,205.584335 
	C220.293686,206.198456 219.092270,207.080078 218.886032,210.113678 
	C215.540085,259.327271 217.228516,308.404785 223.236267,357.308716 
	C230.118057,413.327423 242.967194,467.955780 263.359100,520.670837 
	C269.157562,535.660461 275.636658,550.386902 281.651123,564.866943 
	C330.630341,515.857971 379.198608,467.260223 428.453796,417.975128 
	C402.738556,392.238678 376.678314,366.156921 350.575165,340.032257 
	C405.714935,322.003357 460.996460,303.928162 517.015320,285.559967 
z"/>
<path fill="#141413" opacity="1.000000" stroke="none" 
	d="
M516.646606,285.706451 
	C460.996460,303.928162 405.714935,322.003357 350.575165,340.032257 
	C376.678314,366.156921 402.738556,392.238678 428.453796,417.975128 
	C379.198608,467.260223 330.630341,515.857971 281.651123,564.866943 
	C275.636658,550.386902 269.157562,535.660461 263.359100,520.670837 
	C242.967194,467.955780 230.118057,413.327423 223.236267,357.308716 
	C217.228516,308.404785 215.540085,259.327271 218.886032,210.113678 
	C219.092270,207.080078 220.293686,206.198456 222.863190,205.584335 
	C251.159668,198.821274 279.259613,191.102127 307.754669,185.329681 
	C382.819550,170.123245 458.745453,163.832016 535.317810,166.116211 
	C618.247925,168.590042 699.644836,181.277725 779.566956,203.511093 
	C791.311218,206.778198 791.189758,206.734283 791.803040,219.134827 
	C794.071960,265.014526 792.635132,310.774353 786.988159,356.354675 
	C772.485352,473.416168 733.063416,580.753601 661.450989,675.322510 
	C618.183472,732.460022 566.917419,781.471802 509.164917,823.809082 
	C506.119629,826.041504 504.109741,826.062866 501.031158,823.806030 
	C435.870514,776.037354 379.161316,719.954956 332.967377,653.483582 
	C332.227234,652.418518 331.512238,651.335876 330.923462,650.465454 
	C385.798248,595.558533 440.424500,540.900330 495.137299,486.155518 
	C522.505615,513.515930 550.021912,541.024231 578.218384,569.212524 
	C616.193665,455.368652 653.864868,342.436554 691.931274,228.319626 
	C633.040527,247.591324 575.027893,266.575653 516.646606,285.706451 
z"/>
</svg>